<svg width="1378" height="989" viewBox="0 0 1378 989" fill="none" xmlns="http://www.w3.org/2000/svg">
<rect width="1378" height="989" fill="#5B8088"/>
<path d="M751 386.969H731.281V403.094H754.188V408H725.281V362.5H753.875V367.438H731.281V382.062H751V386.969ZM767.031 408H761.25V374.188H767.031V408ZM760.781 365.219C760.781 364.281 761.062 363.49 761.625 362.844C762.208 362.198 763.062 361.875 764.188 361.875C765.312 361.875 766.167 362.198 766.75 362.844C767.333 363.49 767.625 364.281 767.625 365.219C767.625 366.156 767.333 366.938 766.75 367.562C766.167 368.188 765.312 368.5 764.188 368.5C763.062 368.5 762.208 368.188 761.625 367.562C761.062 366.938 760.781 366.156 760.781 365.219ZM781.781 374.188L781.969 378.438C784.552 375.188 787.927 373.562 792.094 373.562C799.24 373.562 802.844 377.594 802.906 385.656V408H797.125V385.625C797.104 383.188 796.542 381.385 795.438 380.219C794.354 379.052 792.656 378.469 790.344 378.469C788.469 378.469 786.823 378.969 785.406 379.969C783.99 380.969 782.885 382.281 782.094 383.906V408H776.312V374.188H781.781ZM817.062 403.281H836.844V408H810V403.75L828.656 378.969H810.281V374.188H835.906V378.281L817.062 403.281ZM856.906 408.625C852.323 408.625 848.594 407.125 845.719 404.125C842.844 401.104 841.406 397.073 841.406 392.031V390.969C841.406 387.615 842.042 384.625 843.312 382C844.604 379.354 846.396 377.292 848.688 375.812C851 374.312 853.5 373.562 856.188 373.562C860.583 373.562 864 375.01 866.438 377.906C868.875 380.802 870.094 384.948 870.094 390.344V392.75H847.188C847.271 396.083 848.24 398.781 850.094 400.844C851.969 402.885 854.344 403.906 857.219 403.906C859.26 403.906 860.99 403.49 862.406 402.656C863.823 401.823 865.062 400.719 866.125 399.344L869.656 402.094C866.823 406.448 862.573 408.625 856.906 408.625ZM856.188 378.312C853.854 378.312 851.896 379.167 850.312 380.875C848.729 382.562 847.75 384.938 847.375 388H864.312V387.562C864.146 384.625 863.354 382.354 861.938 380.75C860.521 379.125 858.604 378.312 856.188 378.312ZM883.094 408H877.312V360H883.094V408ZM921 391.469C921 396.635 919.812 400.792 917.438 403.938C915.062 407.062 911.875 408.625 907.875 408.625C903.604 408.625 900.302 407.115 897.969 404.094L897.688 408H892.375V360H898.156V377.906C900.49 375.01 903.708 373.562 907.812 373.562C911.917 373.562 915.135 375.115 917.469 378.219C919.823 381.323 921 385.573 921 390.969V391.469ZM915.219 390.812C915.219 386.875 914.458 383.833 912.938 381.688C911.417 379.542 909.229 378.469 906.375 378.469C902.562 378.469 899.823 380.24 898.156 383.781V398.406C899.927 401.948 902.688 403.719 906.438 403.719C909.208 403.719 911.365 402.646 912.906 400.5C914.448 398.354 915.219 395.125 915.219 390.812ZM942.344 408.625C937.76 408.625 934.031 407.125 931.156 404.125C928.281 401.104 926.844 397.073 926.844 392.031V390.969C926.844 387.615 927.479 384.625 928.75 382C930.042 379.354 931.833 377.292 934.125 375.812C936.438 374.312 938.938 373.562 941.625 373.562C946.021 373.562 949.438 375.01 951.875 377.906C954.312 380.802 955.531 384.948 955.531 390.344V392.75H932.625C932.708 396.083 933.677 398.781 935.531 400.844C937.406 402.885 939.781 403.906 942.656 403.906C944.698 403.906 946.427 403.49 947.844 402.656C949.26 401.823 950.5 400.719 951.562 399.344L955.094 402.094C952.26 406.448 948.01 408.625 942.344 408.625ZM941.625 378.312C939.292 378.312 937.333 379.167 935.75 380.875C934.167 382.562 933.188 384.938 932.812 388H949.75V387.562C949.583 384.625 948.792 382.354 947.375 380.75C945.958 379.125 944.042 378.312 941.625 378.312ZM968.531 408H962.75V374.188H968.531V408ZM962.281 365.219C962.281 364.281 962.562 363.49 963.125 362.844C963.708 362.198 964.562 361.875 965.688 361.875C966.812 361.875 967.667 362.198 968.25 362.844C968.833 363.49 969.125 364.281 969.125 365.219C969.125 366.156 968.833 366.938 968.25 367.562C967.667 368.188 966.812 368.5 965.688 368.5C964.562 368.5 963.708 368.188 963.125 367.562C962.562 366.938 962.281 366.156 962.281 365.219ZM997.5 399.031C997.5 397.469 996.906 396.26 995.719 395.406C994.552 394.531 992.5 393.781 989.562 393.156C986.646 392.531 984.323 391.781 982.594 390.906C980.885 390.031 979.615 388.99 978.781 387.781C977.969 386.573 977.562 385.135 977.562 383.469C977.562 380.698 978.729 378.354 981.062 376.438C983.417 374.521 986.417 373.562 990.062 373.562C993.896 373.562 997 374.552 999.375 376.531C1001.77 378.51 1002.97 381.042 1002.97 384.125H997.156C997.156 382.542 996.479 381.177 995.125 380.031C993.792 378.885 992.104 378.312 990.062 378.312C987.958 378.312 986.312 378.771 985.125 379.688C983.938 380.604 983.344 381.802 983.344 383.281C983.344 384.677 983.896 385.729 985 386.438C986.104 387.146 988.094 387.823 990.969 388.469C993.865 389.115 996.208 389.885 998 390.781C999.792 391.677 1001.11 392.76 1001.97 394.031C1002.84 395.281 1003.28 396.812 1003.28 398.625C1003.28 401.646 1002.07 404.073 999.656 405.906C997.24 407.719 994.104 408.625 990.25 408.625C987.542 408.625 985.146 408.146 983.062 407.188C980.979 406.229 979.344 404.896 978.156 403.188C976.99 401.458 976.406 399.594 976.406 397.594H982.188C982.292 399.531 983.062 401.073 984.5 402.219C985.958 403.344 987.875 403.906 990.25 403.906C992.438 403.906 994.188 403.469 995.5 402.594C996.833 401.698 997.5 400.51 997.5 399.031ZM1039.38 391.469C1039.38 396.615 1038.2 400.76 1035.84 403.906C1033.49 407.052 1030.3 408.625 1026.28 408.625C1022.18 408.625 1018.95 407.323 1016.59 404.719V421H1010.81V374.188H1016.09L1016.38 377.938C1018.73 375.021 1022 373.562 1026.19 373.562C1030.25 373.562 1033.46 375.094 1035.81 378.156C1038.19 381.219 1039.38 385.479 1039.38 390.938V391.469ZM1033.59 390.812C1033.59 387 1032.78 383.99 1031.16 381.781C1029.53 379.573 1027.3 378.469 1024.47 378.469C1020.97 378.469 1018.34 380.021 1016.59 383.125V399.281C1018.32 402.365 1020.97 403.906 1024.53 403.906C1027.3 403.906 1029.5 402.812 1031.12 400.625C1032.77 398.417 1033.59 395.146 1033.59 390.812ZM1053.03 408H1047.25V374.188H1053.03V408ZM1046.78 365.219C1046.78 364.281 1047.06 363.49 1047.62 362.844C1048.21 362.198 1049.06 361.875 1050.19 361.875C1051.31 361.875 1052.17 362.198 1052.75 362.844C1053.33 363.49 1053.62 364.281 1053.62 365.219C1053.62 366.156 1053.33 366.938 1052.75 367.562C1052.17 368.188 1051.31 368.5 1050.19 368.5C1049.06 368.5 1048.21 368.188 1047.62 367.562C1047.06 366.938 1046.78 366.156 1046.78 365.219ZM1076.34 408.625C1071.76 408.625 1068.03 407.125 1065.16 404.125C1062.28 401.104 1060.84 397.073 1060.84 392.031V390.969C1060.84 387.615 1061.48 384.625 1062.75 382C1064.04 379.354 1065.83 377.292 1068.12 375.812C1070.44 374.312 1072.94 373.562 1075.62 373.562C1080.02 373.562 1083.44 375.01 1085.88 377.906C1088.31 380.802 1089.53 384.948 1089.53 390.344V392.75H1066.62C1066.71 396.083 1067.68 398.781 1069.53 400.844C1071.41 402.885 1073.78 403.906 1076.66 403.906C1078.7 403.906 1080.43 403.49 1081.84 402.656C1083.26 401.823 1084.5 400.719 1085.56 399.344L1089.09 402.094C1086.26 406.448 1082.01 408.625 1076.34 408.625ZM1075.62 378.312C1073.29 378.312 1071.33 379.167 1069.75 380.875C1068.17 382.562 1067.19 384.938 1066.81 388H1083.75V387.562C1083.58 384.625 1082.79 382.354 1081.38 380.75C1079.96 379.125 1078.04 378.312 1075.62 378.312ZM1102.53 408H1096.75V360H1102.53V408ZM1158.78 367.438H1144.16V408H1138.19V367.438H1123.59V362.5H1158.78V367.438ZM1198.12 393.562C1197.56 398.375 1195.78 402.094 1192.78 404.719C1189.8 407.323 1185.83 408.625 1180.88 408.625C1175.5 408.625 1171.19 406.698 1167.94 402.844C1164.71 398.99 1163.09 393.833 1163.09 387.375V383C1163.09 378.771 1163.84 375.052 1165.34 371.844C1166.86 368.635 1169.01 366.177 1171.78 364.469C1174.55 362.74 1177.76 361.875 1181.41 361.875C1186.24 361.875 1190.11 363.229 1193.03 365.938C1195.95 368.625 1197.65 372.354 1198.12 377.125H1192.09C1191.57 373.5 1190.44 370.875 1188.69 369.25C1186.96 367.625 1184.53 366.812 1181.41 366.812C1177.57 366.812 1174.56 368.229 1172.38 371.062C1170.21 373.896 1169.12 377.927 1169.12 383.156V387.562C1169.12 392.5 1170.16 396.427 1172.22 399.344C1174.28 402.26 1177.17 403.719 1180.88 403.719C1184.21 403.719 1186.76 402.969 1188.53 401.469C1190.32 399.948 1191.51 397.312 1192.09 393.562H1198.12ZM1212.34 390.188V408H1206.34V362.5H1223.12C1228.1 362.5 1232 363.771 1234.81 366.312C1237.65 368.854 1239.06 372.219 1239.06 376.406C1239.06 380.823 1237.68 384.229 1234.91 386.625C1232.16 389 1228.21 390.188 1223.06 390.188H1212.34ZM1212.34 385.281H1223.12C1226.33 385.281 1228.79 384.531 1230.5 383.031C1232.21 381.51 1233.06 379.323 1233.06 376.469C1233.06 373.76 1232.21 371.594 1230.5 369.969C1228.79 368.344 1226.45 367.5 1223.47 367.438H1212.34V385.281Z" fill="white"/>
<path d="M818.438 622.17H807.346V631.24H820.23V634H803.971V608.406H820.055V611.184H807.346V619.41H818.438V622.17ZM833.115 617.898C832.623 617.816 832.09 617.775 831.516 617.775C829.383 617.775 827.936 618.684 827.174 620.5V634H823.922V614.98H827.086L827.139 617.178C828.205 615.479 829.717 614.629 831.674 614.629C832.307 614.629 832.787 614.711 833.115 614.875V617.898ZM853.277 629.518L856.934 614.98H860.186L854.648 634H852.012L847.389 619.586L842.889 634H840.252L834.732 614.98H837.967L841.711 629.219L846.141 614.98H848.76L853.277 629.518ZM871.4 634.352C868.822 634.352 866.725 633.508 865.107 631.82C863.49 630.121 862.682 627.854 862.682 625.018V624.42C862.682 622.533 863.039 620.852 863.754 619.375C864.48 617.887 865.488 616.727 866.777 615.895C868.078 615.051 869.484 614.629 870.996 614.629C873.469 614.629 875.391 615.443 876.762 617.072C878.133 618.701 878.818 621.033 878.818 624.068V625.422H865.934C865.98 627.297 866.525 628.814 867.568 629.975C868.623 631.123 869.959 631.697 871.576 631.697C872.725 631.697 873.697 631.463 874.494 630.994C875.291 630.525 875.988 629.904 876.586 629.131L878.572 630.678C876.979 633.127 874.588 634.352 871.4 634.352ZM870.996 617.301C869.684 617.301 868.582 617.781 867.691 618.742C866.801 619.691 866.25 621.027 866.039 622.75H875.566V622.504C875.473 620.852 875.027 619.574 874.23 618.672C873.434 617.758 872.355 617.301 870.996 617.301ZM886.131 634H882.879V614.98H886.131V634ZM882.615 609.936C882.615 609.408 882.773 608.963 883.09 608.6C883.418 608.236 883.898 608.055 884.531 608.055C885.164 608.055 885.645 608.236 885.973 608.6C886.301 608.963 886.465 609.408 886.465 609.936C886.465 610.463 886.301 610.902 885.973 611.254C885.645 611.605 885.164 611.781 884.531 611.781C883.898 611.781 883.418 611.605 883.09 611.254C882.773 610.902 882.615 610.463 882.615 609.936ZM895.764 610.375V614.98H899.314V617.494H895.764V629.289C895.764 630.051 895.922 630.625 896.238 631.012C896.555 631.387 897.094 631.574 897.855 631.574C898.23 631.574 898.746 631.504 899.402 631.363V634C898.547 634.234 897.715 634.352 896.906 634.352C895.453 634.352 894.357 633.912 893.619 633.033C892.881 632.154 892.512 630.906 892.512 629.289V617.494H889.049V614.98H892.512V610.375H895.764ZM911.021 634.352C908.443 634.352 906.346 633.508 904.729 631.82C903.111 630.121 902.303 627.854 902.303 625.018V624.42C902.303 622.533 902.66 620.852 903.375 619.375C904.102 617.887 905.109 616.727 906.398 615.895C907.699 615.051 909.105 614.629 910.617 614.629C913.09 614.629 915.012 615.443 916.383 617.072C917.754 618.701 918.439 621.033 918.439 624.068V625.422H905.555C905.602 627.297 906.146 628.814 907.189 629.975C908.244 631.123 909.58 631.697 911.197 631.697C912.346 631.697 913.318 631.463 914.115 630.994C914.912 630.525 915.609 629.904 916.207 629.131L918.193 630.678C916.6 633.127 914.209 634.352 911.021 634.352ZM910.617 617.301C909.305 617.301 908.203 617.781 907.312 618.742C906.422 619.691 905.871 621.027 905.66 622.75H915.188V622.504C915.094 620.852 914.648 619.574 913.852 618.672C913.055 617.758 911.977 617.301 910.617 617.301ZM931.412 617.898C930.92 617.816 930.387 617.775 929.812 617.775C927.68 617.775 926.232 618.684 925.471 620.5V634H922.219V614.98H925.383L925.436 617.178C926.502 615.479 928.014 614.629 929.971 614.629C930.604 614.629 931.084 614.711 931.412 614.875V617.898ZM946.16 632.119C944.895 633.607 943.037 634.352 940.588 634.352C938.561 634.352 937.014 633.766 935.947 632.594C934.893 631.41 934.359 629.664 934.348 627.355V614.98H937.6V627.268C937.6 630.15 938.771 631.592 941.115 631.592C943.6 631.592 945.252 630.666 946.072 628.814V614.98H949.324V634H946.23L946.16 632.119ZM957.357 614.98L957.463 617.371C958.916 615.543 960.814 614.629 963.158 614.629C967.178 614.629 969.205 616.896 969.24 621.432V634H965.988V621.414C965.977 620.043 965.66 619.029 965.039 618.373C964.43 617.717 963.475 617.389 962.174 617.389C961.119 617.389 960.193 617.67 959.396 618.232C958.6 618.795 957.979 619.533 957.533 620.447V634H954.281V614.98H957.357ZM973.371 624.332C973.371 621.367 974.057 619.012 975.428 617.266C976.799 615.508 978.615 614.629 980.877 614.629C983.197 614.629 985.008 615.449 986.309 617.09L986.467 614.98H989.438V633.543C989.438 636.004 988.705 637.943 987.24 639.361C985.787 640.779 983.83 641.488 981.369 641.488C979.998 641.488 978.656 641.195 977.344 640.609C976.031 640.023 975.029 639.221 974.338 638.201L976.025 636.25C977.42 637.973 979.125 638.834 981.141 638.834C982.723 638.834 983.953 638.389 984.832 637.498C985.723 636.607 986.168 635.354 986.168 633.736V632.102C984.867 633.602 983.092 634.352 980.842 634.352C978.615 634.352 976.811 633.455 975.428 631.662C974.057 629.869 973.371 627.426 973.371 624.332ZM976.641 624.701C976.641 626.846 977.08 628.533 977.959 629.764C978.838 630.982 980.068 631.592 981.65 631.592C983.701 631.592 985.207 630.66 986.168 628.797V620.113C985.172 618.297 983.678 617.389 981.686 617.389C980.104 617.389 978.867 618.004 977.977 619.234C977.086 620.465 976.641 622.287 976.641 624.701ZM1017.93 627.32H1007.21L1004.8 634H1001.32L1011.09 608.406H1014.05L1023.84 634H1020.38L1017.93 627.32ZM1008.23 624.543H1016.93L1012.57 612.572L1008.23 624.543ZM1038.3 632.119C1037.04 633.607 1035.18 634.352 1032.73 634.352C1030.71 634.352 1029.16 633.766 1028.09 632.594C1027.04 631.41 1026.5 629.664 1026.49 627.355V614.98H1029.74V627.268C1029.74 630.15 1030.92 631.592 1033.26 631.592C1035.74 631.592 1037.4 630.666 1038.22 628.814V614.98H1041.47V634H1038.38L1038.3 632.119ZM1048.03 634V617.494H1045.02V614.98H1048.03V613.029C1048.03 610.99 1048.57 609.414 1049.66 608.301C1050.75 607.188 1052.29 606.631 1054.28 606.631C1055.03 606.631 1055.78 606.73 1056.52 606.93L1056.34 609.566C1055.79 609.461 1055.2 609.408 1054.58 609.408C1053.53 609.408 1052.71 609.719 1052.14 610.34C1051.56 610.949 1051.28 611.828 1051.28 612.977V614.98H1055.34V617.494H1051.28V634H1048.03ZM1057.75 624.332C1057.75 621.367 1058.43 619.012 1059.8 617.266C1061.17 615.508 1062.99 614.629 1065.25 614.629C1067.57 614.629 1069.38 615.449 1070.68 617.09L1070.84 614.98H1073.81V633.543C1073.81 636.004 1073.08 637.943 1071.62 639.361C1070.16 640.779 1068.21 641.488 1065.74 641.488C1064.37 641.488 1063.03 641.195 1061.72 640.609C1060.41 640.023 1059.4 639.221 1058.71 638.201L1060.4 636.25C1061.79 637.973 1063.5 638.834 1065.52 638.834C1067.1 638.834 1068.33 638.389 1069.21 637.498C1070.1 636.607 1070.54 635.354 1070.54 633.736V632.102C1069.24 633.602 1067.47 634.352 1065.22 634.352C1062.99 634.352 1061.19 633.455 1059.8 631.662C1058.43 629.869 1057.75 627.426 1057.75 624.332ZM1061.02 624.701C1061.02 626.846 1061.46 628.533 1062.33 629.764C1063.21 630.982 1064.44 631.592 1066.03 631.592C1068.08 631.592 1069.58 630.66 1070.54 628.797V620.113C1069.55 618.297 1068.05 617.389 1066.06 617.389C1064.48 617.389 1063.24 618.004 1062.35 619.234C1061.46 620.465 1061.02 622.287 1061.02 624.701ZM1090.48 634C1090.29 633.625 1090.14 632.957 1090.02 631.996C1088.51 633.566 1086.7 634.352 1084.61 634.352C1082.73 634.352 1081.19 633.824 1079.98 632.77C1078.79 631.703 1078.19 630.355 1078.19 628.727C1078.19 626.746 1078.94 625.211 1080.44 624.121C1081.95 623.02 1084.07 622.469 1086.8 622.469H1089.97V620.975C1089.97 619.838 1089.63 618.936 1088.95 618.268C1088.27 617.588 1087.27 617.248 1085.94 617.248C1084.78 617.248 1083.81 617.541 1083.02 618.127C1082.24 618.713 1081.85 619.422 1081.85 620.254H1078.58C1078.58 619.305 1078.91 618.391 1079.58 617.512C1080.26 616.621 1081.17 615.918 1082.32 615.402C1083.48 614.887 1084.75 614.629 1086.13 614.629C1088.33 614.629 1090.04 615.18 1091.29 616.281C1092.53 617.371 1093.17 618.877 1093.22 620.799V629.553C1093.22 631.299 1093.44 632.688 1093.89 633.719V634H1090.48ZM1085.08 631.521C1086.1 631.521 1087.07 631.258 1087.98 630.73C1088.89 630.203 1089.56 629.518 1089.97 628.674V624.771H1087.42C1083.43 624.771 1081.44 625.938 1081.44 628.27C1081.44 629.289 1081.78 630.086 1082.46 630.66C1083.14 631.234 1084.01 631.521 1085.08 631.521ZM1114.42 624.701C1114.42 627.607 1113.75 629.945 1112.41 631.715C1111.08 633.473 1109.29 634.352 1107.04 634.352C1104.63 634.352 1102.78 633.502 1101.46 631.803L1101.3 634H1098.32V607H1101.57V617.072C1102.88 615.443 1104.69 614.629 1107 614.629C1109.31 614.629 1111.12 615.502 1112.43 617.248C1113.76 618.994 1114.42 621.385 1114.42 624.42V624.701ZM1111.17 624.332C1111.17 622.117 1110.74 620.406 1109.88 619.199C1109.03 617.992 1107.8 617.389 1106.19 617.389C1104.05 617.389 1102.51 618.385 1101.57 620.377V628.604C1102.56 630.596 1104.12 631.592 1106.23 631.592C1107.79 631.592 1109 630.988 1109.87 629.781C1110.73 628.574 1111.17 626.758 1111.17 624.332ZM1126.42 634.352C1123.85 634.352 1121.75 633.508 1120.13 631.82C1118.51 630.121 1117.71 627.854 1117.71 625.018V624.42C1117.71 622.533 1118.06 620.852 1118.78 619.375C1119.5 617.887 1120.51 616.727 1121.8 615.895C1123.1 615.051 1124.51 614.629 1126.02 614.629C1128.49 614.629 1130.41 615.443 1131.79 617.072C1133.16 618.701 1133.84 621.033 1133.84 624.068V625.422H1120.96C1121 627.297 1121.55 628.814 1122.59 629.975C1123.65 631.123 1124.98 631.697 1126.6 631.697C1127.75 631.697 1128.72 631.463 1129.52 630.994C1130.31 630.525 1131.01 629.904 1131.61 629.131L1133.6 630.678C1132 633.127 1129.61 634.352 1126.42 634.352ZM1126.02 617.301C1124.71 617.301 1123.61 617.781 1122.71 618.742C1121.82 619.691 1121.27 621.027 1121.06 622.75H1130.59V622.504C1130.5 620.852 1130.05 619.574 1129.25 618.672C1128.46 617.758 1127.38 617.301 1126.02 617.301ZM1162.99 634H1146.22V631.662L1155.08 621.818C1156.39 620.33 1157.29 619.123 1157.78 618.197C1158.29 617.26 1158.54 616.293 1158.54 615.297C1158.54 613.961 1158.13 612.865 1157.33 612.01C1156.52 611.154 1155.44 610.727 1154.09 610.727C1152.47 610.727 1151.21 611.189 1150.31 612.115C1149.42 613.029 1148.98 614.307 1148.98 615.947H1145.72C1145.72 613.592 1146.48 611.688 1147.99 610.234C1149.52 608.781 1151.55 608.055 1154.09 608.055C1156.47 608.055 1158.35 608.682 1159.73 609.936C1161.12 611.178 1161.81 612.836 1161.81 614.91C1161.81 617.43 1160.2 620.43 1156.99 623.91L1150.14 631.346H1162.99V634Z" fill="white"/>
<path d="M805.797 513.879C805.48 516.586 804.479 518.678 802.791 520.154C801.115 521.619 798.883 522.352 796.094 522.352C793.07 522.352 790.645 521.268 788.816 519.1C787 516.932 786.092 514.031 786.092 510.398V507.938C786.092 505.559 786.514 503.467 787.357 501.662C788.213 499.857 789.42 498.475 790.979 497.514C792.537 496.541 794.342 496.055 796.393 496.055C799.111 496.055 801.291 496.816 802.932 498.34C804.572 499.852 805.527 501.949 805.797 504.633H802.404C802.111 502.594 801.473 501.117 800.488 500.203C799.516 499.289 798.15 498.832 796.393 498.832C794.236 498.832 792.543 499.629 791.312 501.223C790.094 502.816 789.484 505.084 789.484 508.025V510.504C789.484 513.281 790.064 515.49 791.225 517.131C792.385 518.771 794.008 519.592 796.094 519.592C797.969 519.592 799.404 519.17 800.4 518.326C801.408 517.471 802.076 515.988 802.404 513.879H805.797ZM813.443 522H810.191V495H813.443V522ZM822.197 522H818.945V502.98H822.197V522ZM818.682 497.936C818.682 497.408 818.84 496.963 819.156 496.6C819.484 496.236 819.965 496.055 820.598 496.055C821.23 496.055 821.711 496.236 822.039 496.6C822.367 496.963 822.531 497.408 822.531 497.936C822.531 498.463 822.367 498.902 822.039 499.254C821.711 499.605 821.23 499.781 820.598 499.781C819.965 499.781 819.484 499.605 819.156 499.254C818.84 498.902 818.682 498.463 818.682 497.936ZM835.311 522.352C832.732 522.352 830.635 521.508 829.018 519.82C827.4 518.121 826.592 515.854 826.592 513.018V512.42C826.592 510.533 826.949 508.852 827.664 507.375C828.391 505.887 829.398 504.727 830.688 503.895C831.988 503.051 833.395 502.629 834.906 502.629C837.379 502.629 839.301 503.443 840.672 505.072C842.043 506.701 842.729 509.033 842.729 512.068V513.422H829.844C829.891 515.297 830.436 516.814 831.479 517.975C832.533 519.123 833.869 519.697 835.486 519.697C836.635 519.697 837.607 519.463 838.404 518.994C839.201 518.525 839.898 517.904 840.496 517.131L842.482 518.678C840.889 521.127 838.498 522.352 835.311 522.352ZM834.906 505.301C833.594 505.301 832.492 505.781 831.602 506.742C830.711 507.691 830.16 509.027 829.949 510.75H839.477V510.504C839.383 508.852 838.938 507.574 838.141 506.672C837.344 505.758 836.266 505.301 834.906 505.301ZM849.584 502.98L849.689 505.371C851.143 503.543 853.041 502.629 855.385 502.629C859.404 502.629 861.432 504.896 861.467 509.432V522H858.215V509.414C858.203 508.043 857.887 507.029 857.266 506.373C856.656 505.717 855.701 505.389 854.4 505.389C853.346 505.389 852.42 505.67 851.623 506.232C850.826 506.795 850.205 507.533 849.76 508.447V522H846.508V502.98H849.584ZM870.783 498.375V502.98H874.334V505.494H870.783V517.289C870.783 518.051 870.941 518.625 871.258 519.012C871.574 519.387 872.113 519.574 872.875 519.574C873.25 519.574 873.766 519.504 874.422 519.363V522C873.566 522.234 872.734 522.352 871.926 522.352C870.473 522.352 869.377 521.912 868.639 521.033C867.9 520.154 867.531 518.906 867.531 517.289V505.494H864.068V502.98H867.531V498.375H870.783ZM889.258 510.68L900.262 515.127V518.572L885.883 511.91V509.344L900.262 502.699V506.145L889.258 510.68ZM912.162 512.455H903.584V509.801H912.162V512.455ZM926.857 510.574L915.238 506.021V502.682L930.25 509.326V511.893L915.238 518.555V515.18L926.857 510.574ZM951.133 510.592C948.238 509.76 946.129 508.74 944.805 507.533C943.492 506.314 942.836 504.814 942.836 503.033C942.836 501.018 943.639 499.354 945.244 498.041C946.861 496.717 948.959 496.055 951.537 496.055C953.295 496.055 954.859 496.395 956.23 497.074C957.613 497.754 958.68 498.691 959.43 499.887C960.191 501.082 960.572 502.389 960.572 503.807H957.18C957.18 502.26 956.688 501.047 955.703 500.168C954.719 499.277 953.33 498.832 951.537 498.832C949.873 498.832 948.572 499.201 947.635 499.939C946.709 500.666 946.246 501.68 946.246 502.98C946.246 504.023 946.686 504.908 947.564 505.635C948.455 506.35 949.961 507.006 952.082 507.604C954.215 508.201 955.879 508.863 957.074 509.59C958.281 510.305 959.172 511.143 959.746 512.104C960.332 513.064 960.625 514.195 960.625 515.496C960.625 517.57 959.816 519.234 958.199 520.488C956.582 521.73 954.42 522.352 951.713 522.352C949.955 522.352 948.314 522.018 946.791 521.35C945.268 520.67 944.09 519.744 943.258 518.572C942.438 517.4 942.027 516.07 942.027 514.582H945.42C945.42 516.129 945.988 517.354 947.125 518.256C948.273 519.146 949.803 519.592 951.713 519.592C953.494 519.592 954.859 519.229 955.809 518.502C956.758 517.775 957.232 516.785 957.232 515.531C957.232 514.277 956.793 513.311 955.914 512.631C955.035 511.939 953.441 511.26 951.133 510.592ZM972.35 522.352C969.771 522.352 967.674 521.508 966.057 519.82C964.439 518.121 963.631 515.854 963.631 513.018V512.42C963.631 510.533 963.988 508.852 964.703 507.375C965.43 505.887 966.438 504.727 967.727 503.895C969.027 503.051 970.434 502.629 971.945 502.629C974.418 502.629 976.34 503.443 977.711 505.072C979.082 506.701 979.768 509.033 979.768 512.068V513.422H966.883C966.93 515.297 967.475 516.814 968.518 517.975C969.572 519.123 970.908 519.697 972.525 519.697C973.674 519.697 974.646 519.463 975.443 518.994C976.24 518.525 976.938 517.904 977.535 517.131L979.521 518.678C977.928 521.127 975.537 522.352 972.35 522.352ZM971.945 505.301C970.633 505.301 969.531 505.781 968.641 506.742C967.75 507.691 967.199 509.027 966.988 510.75H976.516V510.504C976.422 508.852 975.977 507.574 975.18 506.672C974.383 505.758 973.305 505.301 971.945 505.301ZM992.74 505.898C992.248 505.816 991.715 505.775 991.141 505.775C989.008 505.775 987.561 506.684 986.799 508.5V522H983.547V502.98H986.711L986.764 505.178C987.83 503.479 989.342 502.629 991.299 502.629C991.932 502.629 992.412 502.711 992.74 502.875V505.898ZM1002.34 517.588L1007.05 502.98H1010.37L1003.55 522H1001.07L994.182 502.98H997.504L1002.34 517.588ZM1021.15 522.352C1018.57 522.352 1016.47 521.508 1014.85 519.82C1013.24 518.121 1012.43 515.854 1012.43 513.018V512.42C1012.43 510.533 1012.79 508.852 1013.5 507.375C1014.23 505.887 1015.23 504.727 1016.52 503.895C1017.82 503.051 1019.23 502.629 1020.74 502.629C1023.21 502.629 1025.14 503.443 1026.51 505.072C1027.88 506.701 1028.56 509.033 1028.56 512.068V513.422H1015.68C1015.73 515.297 1016.27 516.814 1017.31 517.975C1018.37 519.123 1019.71 519.697 1021.32 519.697C1022.47 519.697 1023.44 519.463 1024.24 518.994C1025.04 518.525 1025.73 517.904 1026.33 517.131L1028.32 518.678C1026.72 521.127 1024.33 522.352 1021.15 522.352ZM1020.74 505.301C1019.43 505.301 1018.33 505.781 1017.44 506.742C1016.55 507.691 1016 509.027 1015.79 510.75H1025.31V510.504C1025.22 508.852 1024.77 507.574 1023.98 506.672C1023.18 505.758 1022.1 505.301 1020.74 505.301ZM1041.54 505.898C1041.04 505.816 1040.51 505.775 1039.94 505.775C1037.8 505.775 1036.36 506.684 1035.6 508.5V522H1032.34V502.98H1035.51L1035.56 505.178C1036.63 503.479 1038.14 502.629 1040.1 502.629C1040.73 502.629 1041.21 502.711 1041.54 502.875V505.898ZM1059.75 517.588L1064.46 502.98H1067.78L1060.96 522H1058.48L1051.59 502.98H1054.91L1059.75 517.588ZM1074.44 522H1071.19V502.98H1074.44V522ZM1070.93 497.936C1070.93 497.408 1071.09 496.963 1071.4 496.6C1071.73 496.236 1072.21 496.055 1072.84 496.055C1073.48 496.055 1073.96 496.236 1074.29 496.6C1074.61 496.963 1074.78 497.408 1074.78 497.936C1074.78 498.463 1074.61 498.902 1074.29 499.254C1073.96 499.605 1073.48 499.781 1072.84 499.781C1072.21 499.781 1071.73 499.605 1071.4 499.254C1071.09 498.902 1070.93 498.463 1070.93 497.936ZM1091.41 522C1091.22 521.625 1091.07 520.957 1090.95 519.996C1089.44 521.566 1087.63 522.352 1085.54 522.352C1083.66 522.352 1082.12 521.824 1080.91 520.77C1079.72 519.703 1079.12 518.355 1079.12 516.727C1079.12 514.746 1079.87 513.211 1081.37 512.121C1082.88 511.02 1085 510.469 1087.73 510.469H1090.9V508.975C1090.9 507.838 1090.56 506.936 1089.88 506.268C1089.2 505.588 1088.2 505.248 1086.87 505.248C1085.71 505.248 1084.74 505.541 1083.95 506.127C1083.17 506.713 1082.78 507.422 1082.78 508.254H1079.51C1079.51 507.305 1079.84 506.391 1080.51 505.512C1081.19 504.621 1082.1 503.918 1083.25 503.402C1084.41 502.887 1085.68 502.629 1087.06 502.629C1089.26 502.629 1090.97 503.18 1092.21 504.281C1093.46 505.371 1094.1 506.877 1094.15 508.799V517.553C1094.15 519.299 1094.37 520.688 1094.82 521.719V522H1091.41ZM1086.01 519.521C1087.03 519.521 1088 519.258 1088.91 518.73C1089.82 518.203 1090.49 517.518 1090.9 516.674V512.771H1088.35C1084.36 512.771 1082.37 513.938 1082.37 516.27C1082.37 517.289 1082.71 518.086 1083.39 518.66C1084.07 519.234 1084.94 519.521 1086.01 519.521ZM1125.67 499.184H1117.44V522H1114.08V499.184H1105.87V496.406H1125.67V499.184ZM1147.8 513.879C1147.48 516.586 1146.48 518.678 1144.79 520.154C1143.12 521.619 1140.88 522.352 1138.09 522.352C1135.07 522.352 1132.64 521.268 1130.82 519.1C1129 516.932 1128.09 514.031 1128.09 510.398V507.938C1128.09 505.559 1128.51 503.467 1129.36 501.662C1130.21 499.857 1131.42 498.475 1132.98 497.514C1134.54 496.541 1136.34 496.055 1138.39 496.055C1141.11 496.055 1143.29 496.816 1144.93 498.34C1146.57 499.852 1147.53 501.949 1147.8 504.633H1144.4C1144.11 502.594 1143.47 501.117 1142.49 500.203C1141.52 499.289 1140.15 498.832 1138.39 498.832C1136.24 498.832 1134.54 499.629 1133.31 501.223C1132.09 502.816 1131.48 505.084 1131.48 508.025V510.504C1131.48 513.281 1132.06 515.49 1133.22 517.131C1134.38 518.771 1136.01 519.592 1138.09 519.592C1139.97 519.592 1141.4 519.17 1142.4 518.326C1143.41 517.471 1144.08 515.988 1144.4 513.879H1147.8ZM1155.79 511.98V522H1152.42V496.406H1161.86C1164.66 496.406 1166.85 497.121 1168.43 498.551C1170.03 499.98 1170.82 501.873 1170.82 504.229C1170.82 506.713 1170.04 508.629 1168.49 509.977C1166.94 511.312 1164.72 511.98 1161.82 511.98H1155.79ZM1155.79 509.221H1161.86C1163.66 509.221 1165.05 508.799 1166.01 507.955C1166.97 507.1 1167.45 505.869 1167.45 504.264C1167.45 502.74 1166.97 501.521 1166.01 500.607C1165.05 499.693 1163.73 499.219 1162.05 499.184H1155.79V509.221Z" fill="white"/>
<rect x="125" y="129" width="411" height="731" fill="white"/>
<rect width="411" height="731" transform="translate(125 129)" fill="#FFEED4" fill-opacity="0.5"/>
<rect x="238.808" y="181.696" width="40.61" height="75.657" fill="url(#paint0_linear)"/>
<path d="M216 160L238.808 181.696V257.353L216 235.657V160Z" fill="url(#paint1_linear)"/>
<path d="M238.808 181.696L216 160H256.61L279.418 181.696L238.808 181.696Z" fill="url(#paint2_linear)"/>
<rect x="242.702" y="187.815" width="25.0336" height="4.45041" fill="white"/>
<rect x="242.702" y="207.842" width="25.0336" height="4.45041" fill="white"/>
<rect x="242.702" y="197.829" width="25.0336" height="4.45041" fill="white"/>
<rect x="272.187" y="188.371" width="3.33781" height="3.33781" rx="1.66891" fill="white"/>
<rect x="272.187" y="198.385" width="3.33781" height="3.33781" rx="1.66891" fill="white"/>
<rect x="272.187" y="208.398" width="3.33781" height="3.33781" rx="1.66891" fill="white"/>
<rect x="403.808" y="181.696" width="40.61" height="75.657" fill="url(#paint3_linear)"/>
<path d="M381 160L403.808 181.696V257.353L381 235.657V160Z" fill="url(#paint4_linear)"/>
<path d="M403.808 181.696L381 160H421.61L444.418 181.696L403.808 181.696Z" fill="url(#paint5_linear)"/>
<rect x="407.702" y="187.815" width="25.0336" height="4.45041" fill="white"/>
<rect x="407.703" y="207.842" width="25.0336" height="4.45041" fill="white"/>
<rect x="407.703" y="197.829" width="25.0336" height="4.45041" fill="white"/>
<rect x="437.187" y="188.371" width="3.33781" height="3.33781" rx="1.66891" fill="white"/>
<rect x="437.187" y="198.385" width="3.33781" height="3.33781" rx="1.66891" fill="white"/>
<rect x="437.187" y="208.398" width="3.33781" height="3.33781" rx="1.66891" fill="white"/>
<rect x="320.585" y="202.835" width="29.484" height="2.22521" fill="url(#paint6_linear)"/>
<path d="M312.071 204.814C311.405 204.429 311.405 203.467 312.071 203.082L319.919 198.551C320.586 198.166 321.419 198.647 321.419 199.417V208.479C321.419 209.249 320.586 209.73 319.919 209.345L312.071 204.814Z" fill="url(#paint7_linear)"/>
<rect x="340.055" y="214.518" width="29.484" height="2.22521" transform="rotate(-180 340.055 214.518)" fill="url(#paint8_linear)"/>
<path d="M348.569 212.539C349.235 212.924 349.235 213.886 348.569 214.271L340.721 218.802C340.054 219.187 339.221 218.706 339.221 217.936V208.874C339.221 208.104 340.054 207.623 340.721 208.008L348.569 212.539Z" fill="url(#paint9_linear)"/>
<g filter="url(#filter0_d)">
<rect x="172" y="631" width="317" height="199" rx="35" fill="url(#paint10_linear)"/>
</g>
<g filter="url(#filter1_d)">
<rect x="172" y="383" width="317" height="199" rx="35" fill="url(#paint11_linear)"/>
</g>
<path d="M172 424C172 422.343 173.343 421 175 421H486C487.657 421 489 422.343 489 424V425H172V424Z" fill="white"/>
<g filter="url(#filter2_d)">
<rect x="177" y="295" width="307" height="42" rx="21" fill="url(#paint12_linear)"/>
<rect x="174.5" y="292.5" width="312" height="47" rx="23.5" stroke="white" stroke-width="5"/>
</g>
<path d="M207.973 399.154H203.617V411H200.688V399.154H196.391V396.781H207.973V399.154ZM220.541 406.264C220.43 407.794 219.864 408.998 218.842 409.877C217.826 410.756 216.485 411.195 214.818 411.195C212.995 411.195 211.56 410.583 210.512 409.359C209.47 408.129 208.949 406.443 208.949 404.301V403.432C208.949 402.064 209.19 400.86 209.672 399.818C210.154 398.777 210.84 397.979 211.732 397.426C212.631 396.866 213.673 396.586 214.857 396.586C216.498 396.586 217.82 397.025 218.822 397.904C219.825 398.783 220.404 400.017 220.561 401.605H217.631C217.559 400.688 217.302 400.023 216.859 399.613C216.423 399.197 215.756 398.988 214.857 398.988C213.881 398.988 213.148 399.34 212.66 400.043C212.178 400.74 211.931 401.824 211.918 403.295V404.369C211.918 405.906 212.149 407.029 212.611 407.738C213.08 408.448 213.816 408.803 214.818 408.803C215.723 408.803 216.397 408.598 216.84 408.188C217.289 407.771 217.546 407.13 217.611 406.264H220.541ZM225.395 405.99V411H222.465V396.781H228.012C229.079 396.781 230.017 396.977 230.824 397.367C231.638 397.758 232.263 398.314 232.699 399.037C233.135 399.753 233.354 400.57 233.354 401.488C233.354 402.882 232.875 403.982 231.918 404.789C230.967 405.59 229.649 405.99 227.963 405.99H225.395ZM225.395 403.617H228.012C228.786 403.617 229.376 403.435 229.779 403.07C230.189 402.706 230.395 402.185 230.395 401.508C230.395 400.811 230.189 400.248 229.779 399.818C229.369 399.389 228.803 399.167 228.08 399.154H225.395V403.617ZM248.91 405.189H243.285V411H240.355V396.781H249.613V399.154H243.285V402.826H248.91V405.189ZM255.775 411.195C254.226 411.195 252.963 410.72 251.986 409.77C251.016 408.819 250.531 407.553 250.531 405.971V405.697C250.531 404.636 250.736 403.689 251.146 402.855C251.557 402.016 252.136 401.371 252.885 400.922C253.64 400.466 254.499 400.238 255.463 400.238C256.908 400.238 258.044 400.694 258.871 401.605C259.704 402.517 260.121 403.809 260.121 405.482V406.635H253.393C253.484 407.325 253.757 407.878 254.213 408.295C254.675 408.712 255.258 408.92 255.961 408.92C257.048 408.92 257.898 408.526 258.51 407.738L259.896 409.291C259.473 409.89 258.9 410.359 258.178 410.697C257.455 411.029 256.654 411.195 255.775 411.195ZM255.453 402.523C254.893 402.523 254.438 402.712 254.086 403.09C253.741 403.467 253.52 404.008 253.422 404.711H257.348V404.486C257.335 403.861 257.165 403.38 256.84 403.041C256.514 402.696 256.052 402.523 255.453 402.523ZM267.855 411C267.725 410.746 267.631 410.43 267.572 410.053C266.889 410.814 266 411.195 264.906 411.195C263.871 411.195 263.012 410.896 262.328 410.297C261.651 409.698 261.312 408.943 261.312 408.031C261.312 406.911 261.726 406.052 262.553 405.453C263.386 404.854 264.587 404.551 266.156 404.545H267.455V403.939C267.455 403.451 267.328 403.061 267.074 402.768C266.827 402.475 266.433 402.328 265.893 402.328C265.417 402.328 265.043 402.442 264.77 402.67C264.503 402.898 264.369 403.21 264.369 403.607H261.547C261.547 402.995 261.736 402.429 262.113 401.908C262.491 401.387 263.025 400.98 263.715 400.688C264.405 400.388 265.18 400.238 266.039 400.238C267.341 400.238 268.373 400.567 269.135 401.225C269.903 401.876 270.287 402.794 270.287 403.979V408.559C270.294 409.561 270.434 410.32 270.707 410.834V411H267.855ZM265.521 409.037C265.938 409.037 266.322 408.946 266.674 408.764C267.025 408.575 267.286 408.324 267.455 408.012V406.195H266.4C264.988 406.195 264.236 406.684 264.145 407.66L264.135 407.826C264.135 408.178 264.258 408.467 264.506 408.695C264.753 408.923 265.092 409.037 265.521 409.037ZM275.834 397.836V400.434H277.641V402.504H275.834V407.777C275.834 408.168 275.909 408.448 276.059 408.617C276.208 408.786 276.495 408.871 276.918 408.871C277.23 408.871 277.507 408.848 277.748 408.803V410.941C277.195 411.111 276.625 411.195 276.039 411.195C274.06 411.195 273.051 410.196 273.012 408.197V402.504H271.469V400.434H273.012V397.836H275.834ZM285.541 409.926C284.844 410.772 283.881 411.195 282.65 411.195C281.518 411.195 280.652 410.87 280.053 410.219C279.46 409.568 279.158 408.614 279.145 407.357V400.434H281.967V407.26C281.967 408.36 282.468 408.91 283.471 408.91C284.428 408.91 285.085 408.578 285.443 407.914V400.434H288.275V411H285.619L285.541 409.926ZM296.342 403.08C295.958 403.028 295.619 403.002 295.326 403.002C294.258 403.002 293.559 403.363 293.227 404.086V411H290.404V400.434H293.07L293.148 401.693C293.715 400.723 294.499 400.238 295.502 400.238C295.814 400.238 296.107 400.281 296.381 400.365L296.342 403.08ZM302.377 411.195C300.827 411.195 299.564 410.72 298.588 409.77C297.618 408.819 297.133 407.553 297.133 405.971V405.697C297.133 404.636 297.338 403.689 297.748 402.855C298.158 402.016 298.738 401.371 299.486 400.922C300.242 400.466 301.101 400.238 302.064 400.238C303.51 400.238 304.646 400.694 305.473 401.605C306.306 402.517 306.723 403.809 306.723 405.482V406.635H299.994C300.085 407.325 300.359 407.878 300.814 408.295C301.277 408.712 301.859 408.92 302.562 408.92C303.65 408.92 304.499 408.526 305.111 407.738L306.498 409.291C306.075 409.89 305.502 410.359 304.779 410.697C304.057 411.029 303.256 411.195 302.377 411.195ZM302.055 402.523C301.495 402.523 301.039 402.712 300.688 403.09C300.342 403.467 300.121 404.008 300.023 404.711H303.949V404.486C303.936 403.861 303.767 403.38 303.441 403.041C303.116 402.696 302.654 402.523 302.055 402.523Z" fill="white"/>
<path d="M363.238 474.098H359.23V481H356.969V463.938H362.617C364.539 463.938 366.016 464.375 367.047 465.25C368.086 466.125 368.605 467.398 368.605 469.07C368.605 470.133 368.316 471.059 367.738 471.848C367.168 472.637 366.371 473.227 365.348 473.617L369.355 480.859V481H366.941L363.238 474.098ZM359.23 472.258H362.688C363.805 472.258 364.691 471.969 365.348 471.391C366.012 470.812 366.344 470.039 366.344 469.07C366.344 468.016 366.027 467.207 365.395 466.645C364.77 466.082 363.863 465.797 362.676 465.789H359.23V472.258ZM376.691 481.234C374.973 481.234 373.574 480.672 372.496 479.547C371.418 478.414 370.879 476.902 370.879 475.012V474.613C370.879 473.355 371.117 472.234 371.594 471.25C372.078 470.258 372.75 469.484 373.609 468.93C374.477 468.367 375.414 468.086 376.422 468.086C378.07 468.086 379.352 468.629 380.266 469.715C381.18 470.801 381.637 472.355 381.637 474.379V475.281H373.047C373.078 476.531 373.441 477.543 374.137 478.316C374.84 479.082 375.73 479.465 376.809 479.465C377.574 479.465 378.223 479.309 378.754 478.996C379.285 478.684 379.75 478.27 380.148 477.754L381.473 478.785C380.41 480.418 378.816 481.234 376.691 481.234ZM376.422 469.867C375.547 469.867 374.812 470.188 374.219 470.828C373.625 471.461 373.258 472.352 373.117 473.5H379.469V473.336C379.406 472.234 379.109 471.383 378.578 470.781C378.047 470.172 377.328 469.867 376.422 469.867ZM391.539 477.637C391.539 477.051 391.316 476.598 390.871 476.277C390.434 475.949 389.664 475.668 388.562 475.434C387.469 475.199 386.598 474.918 385.949 474.59C385.309 474.262 384.832 473.871 384.52 473.418C384.215 472.965 384.062 472.426 384.062 471.801C384.062 470.762 384.5 469.883 385.375 469.164C386.258 468.445 387.383 468.086 388.75 468.086C390.188 468.086 391.352 468.457 392.242 469.199C393.141 469.941 393.59 470.891 393.59 472.047H391.41C391.41 471.453 391.156 470.941 390.648 470.512C390.148 470.082 389.516 469.867 388.75 469.867C387.961 469.867 387.344 470.039 386.898 470.383C386.453 470.727 386.23 471.176 386.23 471.73C386.23 472.254 386.438 472.648 386.852 472.914C387.266 473.18 388.012 473.434 389.09 473.676C390.176 473.918 391.055 474.207 391.727 474.543C392.398 474.879 392.895 475.285 393.215 475.762C393.543 476.23 393.707 476.805 393.707 477.484C393.707 478.617 393.254 479.527 392.348 480.215C391.441 480.895 390.266 481.234 388.82 481.234C387.805 481.234 386.906 481.055 386.125 480.695C385.344 480.336 384.73 479.836 384.285 479.195C383.848 478.547 383.629 477.848 383.629 477.098H385.797C385.836 477.824 386.125 478.402 386.664 478.832C387.211 479.254 387.93 479.465 388.82 479.465C389.641 479.465 390.297 479.301 390.789 478.973C391.289 478.637 391.539 478.191 391.539 477.637ZM404.359 479.746C403.516 480.738 402.277 481.234 400.645 481.234C399.293 481.234 398.262 480.844 397.551 480.062C396.848 479.273 396.492 478.109 396.484 476.57V468.32H398.652V476.512C398.652 478.434 399.434 479.395 400.996 479.395C402.652 479.395 403.754 478.777 404.301 477.543V468.32H406.469V481H404.406L404.359 479.746ZM412.129 481H409.961V463H412.129V481ZM418.551 465.25V468.32H420.918V469.996H418.551V477.859C418.551 478.367 418.656 478.75 418.867 479.008C419.078 479.258 419.438 479.383 419.945 479.383C420.195 479.383 420.539 479.336 420.977 479.242V481C420.406 481.156 419.852 481.234 419.312 481.234C418.344 481.234 417.613 480.941 417.121 480.355C416.629 479.77 416.383 478.938 416.383 477.859V469.996H414.074V468.32H416.383V465.25H418.551Z" fill="white"/>
<path d="M367.105 527.02C367.105 528.691 366.824 530.152 366.262 531.402C365.699 532.645 364.902 533.594 363.871 534.25C362.84 534.906 361.637 535.234 360.262 535.234C358.918 535.234 357.727 534.906 356.688 534.25C355.648 533.586 354.84 532.645 354.262 531.426C353.691 530.199 353.398 528.781 353.383 527.172V525.941C353.383 524.301 353.668 522.852 354.238 521.594C354.809 520.336 355.613 519.375 356.652 518.711C357.699 518.039 358.895 517.703 360.238 517.703C361.605 517.703 362.809 518.035 363.848 518.699C364.895 519.355 365.699 520.312 366.262 521.57C366.824 522.82 367.105 524.277 367.105 525.941V527.02ZM364.867 525.918C364.867 523.895 364.461 522.344 363.648 521.266C362.836 520.18 361.699 519.637 360.238 519.637C358.816 519.637 357.695 520.18 356.875 521.266C356.062 522.344 355.645 523.844 355.621 525.766V527.02C355.621 528.98 356.031 530.523 356.852 531.648C357.68 532.766 358.816 533.324 360.262 533.324C361.715 533.324 362.84 532.797 363.637 531.742C364.434 530.68 364.844 529.16 364.867 527.184V525.918ZM377.969 533.746C377.125 534.738 375.887 535.234 374.254 535.234C372.902 535.234 371.871 534.844 371.16 534.062C370.457 533.273 370.102 532.109 370.094 530.57V522.32H372.262V530.512C372.262 532.434 373.043 533.395 374.605 533.395C376.262 533.395 377.363 532.777 377.91 531.543V522.32H380.078V535H378.016L377.969 533.746ZM386.324 519.25V522.32H388.691V523.996H386.324V531.859C386.324 532.367 386.43 532.75 386.641 533.008C386.852 533.258 387.211 533.383 387.719 533.383C387.969 533.383 388.312 533.336 388.75 533.242V535C388.18 535.156 387.625 535.234 387.086 535.234C386.117 535.234 385.387 534.941 384.895 534.355C384.402 533.77 384.156 532.938 384.156 531.859V523.996H381.848V522.32H384.156V519.25H386.324ZM401.945 528.801C401.945 530.73 401.504 532.285 400.621 533.465C399.738 534.645 398.543 535.234 397.035 535.234C395.496 535.234 394.285 534.746 393.402 533.77V539.875H391.234V522.32H393.215L393.32 523.727C394.203 522.633 395.43 522.086 397 522.086C398.523 522.086 399.727 522.66 400.609 523.809C401.5 524.957 401.945 526.555 401.945 528.602V528.801ZM399.777 528.555C399.777 527.125 399.473 525.996 398.863 525.168C398.254 524.34 397.418 523.926 396.355 523.926C395.043 523.926 394.059 524.508 393.402 525.672V531.73C394.051 532.887 395.043 533.465 396.379 533.465C397.418 533.465 398.242 533.055 398.852 532.234C399.469 531.406 399.777 530.18 399.777 528.555ZM412.539 533.746C411.695 534.738 410.457 535.234 408.824 535.234C407.473 535.234 406.441 534.844 405.73 534.062C405.027 533.273 404.672 532.109 404.664 530.57V522.32H406.832V530.512C406.832 532.434 407.613 533.395 409.176 533.395C410.832 533.395 411.934 532.777 412.48 531.543V522.32H414.648V535H412.586L412.539 533.746ZM420.895 519.25V522.32H423.262V523.996H420.895V531.859C420.895 532.367 421 532.75 421.211 533.008C421.422 533.258 421.781 533.383 422.289 533.383C422.539 533.383 422.883 533.336 423.32 533.242V535C422.75 535.156 422.195 535.234 421.656 535.234C420.688 535.234 419.957 534.941 419.465 534.355C418.973 533.77 418.727 532.938 418.727 531.859V523.996H416.418V522.32H418.727V519.25H420.895Z" fill="white"/>
<path d="M363.238 728.098H359.23V735H356.969V717.938H362.617C364.539 717.938 366.016 718.375 367.047 719.25C368.086 720.125 368.605 721.398 368.605 723.07C368.605 724.133 368.316 725.059 367.738 725.848C367.168 726.637 366.371 727.227 365.348 727.617L369.355 734.859V735H366.941L363.238 728.098ZM359.23 726.258H362.688C363.805 726.258 364.691 725.969 365.348 725.391C366.012 724.812 366.344 724.039 366.344 723.07C366.344 722.016 366.027 721.207 365.395 720.645C364.77 720.082 363.863 719.797 362.676 719.789H359.23V726.258ZM376.691 735.234C374.973 735.234 373.574 734.672 372.496 733.547C371.418 732.414 370.879 730.902 370.879 729.012V728.613C370.879 727.355 371.117 726.234 371.594 725.25C372.078 724.258 372.75 723.484 373.609 722.93C374.477 722.367 375.414 722.086 376.422 722.086C378.07 722.086 379.352 722.629 380.266 723.715C381.18 724.801 381.637 726.355 381.637 728.379V729.281H373.047C373.078 730.531 373.441 731.543 374.137 732.316C374.84 733.082 375.73 733.465 376.809 733.465C377.574 733.465 378.223 733.309 378.754 732.996C379.285 732.684 379.75 732.27 380.148 731.754L381.473 732.785C380.41 734.418 378.816 735.234 376.691 735.234ZM376.422 723.867C375.547 723.867 374.812 724.188 374.219 724.828C373.625 725.461 373.258 726.352 373.117 727.5H379.469V727.336C379.406 726.234 379.109 725.383 378.578 724.781C378.047 724.172 377.328 723.867 376.422 723.867ZM391.539 731.637C391.539 731.051 391.316 730.598 390.871 730.277C390.434 729.949 389.664 729.668 388.562 729.434C387.469 729.199 386.598 728.918 385.949 728.59C385.309 728.262 384.832 727.871 384.52 727.418C384.215 726.965 384.062 726.426 384.062 725.801C384.062 724.762 384.5 723.883 385.375 723.164C386.258 722.445 387.383 722.086 388.75 722.086C390.188 722.086 391.352 722.457 392.242 723.199C393.141 723.941 393.59 724.891 393.59 726.047H391.41C391.41 725.453 391.156 724.941 390.648 724.512C390.148 724.082 389.516 723.867 388.75 723.867C387.961 723.867 387.344 724.039 386.898 724.383C386.453 724.727 386.23 725.176 386.23 725.73C386.23 726.254 386.438 726.648 386.852 726.914C387.266 727.18 388.012 727.434 389.09 727.676C390.176 727.918 391.055 728.207 391.727 728.543C392.398 728.879 392.895 729.285 393.215 729.762C393.543 730.23 393.707 730.805 393.707 731.484C393.707 732.617 393.254 733.527 392.348 734.215C391.441 734.895 390.266 735.234 388.82 735.234C387.805 735.234 386.906 735.055 386.125 734.695C385.344 734.336 384.73 733.836 384.285 733.195C383.848 732.547 383.629 731.848 383.629 731.098H385.797C385.836 731.824 386.125 732.402 386.664 732.832C387.211 733.254 387.93 733.465 388.82 733.465C389.641 733.465 390.297 733.301 390.789 732.973C391.289 732.637 391.539 732.191 391.539 731.637ZM404.359 733.746C403.516 734.738 402.277 735.234 400.645 735.234C399.293 735.234 398.262 734.844 397.551 734.062C396.848 733.273 396.492 732.109 396.484 730.57V722.32H398.652V730.512C398.652 732.434 399.434 733.395 400.996 733.395C402.652 733.395 403.754 732.777 404.301 731.543V722.32H406.469V735H404.406L404.359 733.746ZM412.129 735H409.961V717H412.129V735ZM418.551 719.25V722.32H420.918V723.996H418.551V731.859C418.551 732.367 418.656 732.75 418.867 733.008C419.078 733.258 419.438 733.383 419.945 733.383C420.195 733.383 420.539 733.336 420.977 733.242V735C420.406 735.156 419.852 735.234 419.312 735.234C418.344 735.234 417.613 734.941 417.121 734.355C416.629 733.77 416.383 732.938 416.383 731.859V723.996H414.074V722.32H416.383V719.25H418.551Z" fill="white"/>
<path d="M367.105 781.02C367.105 782.691 366.824 784.152 366.262 785.402C365.699 786.645 364.902 787.594 363.871 788.25C362.84 788.906 361.637 789.234 360.262 789.234C358.918 789.234 357.727 788.906 356.688 788.25C355.648 787.586 354.84 786.645 354.262 785.426C353.691 784.199 353.398 782.781 353.383 781.172V779.941C353.383 778.301 353.668 776.852 354.238 775.594C354.809 774.336 355.613 773.375 356.652 772.711C357.699 772.039 358.895 771.703 360.238 771.703C361.605 771.703 362.809 772.035 363.848 772.699C364.895 773.355 365.699 774.312 366.262 775.57C366.824 776.82 367.105 778.277 367.105 779.941V781.02ZM364.867 779.918C364.867 777.895 364.461 776.344 363.648 775.266C362.836 774.18 361.699 773.637 360.238 773.637C358.816 773.637 357.695 774.18 356.875 775.266C356.062 776.344 355.645 777.844 355.621 779.766V781.02C355.621 782.98 356.031 784.523 356.852 785.648C357.68 786.766 358.816 787.324 360.262 787.324C361.715 787.324 362.84 786.797 363.637 785.742C364.434 784.68 364.844 783.16 364.867 781.184V779.918ZM377.969 787.746C377.125 788.738 375.887 789.234 374.254 789.234C372.902 789.234 371.871 788.844 371.16 788.062C370.457 787.273 370.102 786.109 370.094 784.57V776.32H372.262V784.512C372.262 786.434 373.043 787.395 374.605 787.395C376.262 787.395 377.363 786.777 377.91 785.543V776.32H380.078V789H378.016L377.969 787.746ZM386.324 773.25V776.32H388.691V777.996H386.324V785.859C386.324 786.367 386.43 786.75 386.641 787.008C386.852 787.258 387.211 787.383 387.719 787.383C387.969 787.383 388.312 787.336 388.75 787.242V789C388.18 789.156 387.625 789.234 387.086 789.234C386.117 789.234 385.387 788.941 384.895 788.355C384.402 787.77 384.156 786.938 384.156 785.859V777.996H381.848V776.32H384.156V773.25H386.324ZM401.945 782.801C401.945 784.73 401.504 786.285 400.621 787.465C399.738 788.645 398.543 789.234 397.035 789.234C395.496 789.234 394.285 788.746 393.402 787.77V793.875H391.234V776.32H393.215L393.32 777.727C394.203 776.633 395.43 776.086 397 776.086C398.523 776.086 399.727 776.66 400.609 777.809C401.5 778.957 401.945 780.555 401.945 782.602V782.801ZM399.777 782.555C399.777 781.125 399.473 779.996 398.863 779.168C398.254 778.34 397.418 777.926 396.355 777.926C395.043 777.926 394.059 778.508 393.402 779.672V785.73C394.051 786.887 395.043 787.465 396.379 787.465C397.418 787.465 398.242 787.055 398.852 786.234C399.469 785.406 399.777 784.18 399.777 782.555ZM412.539 787.746C411.695 788.738 410.457 789.234 408.824 789.234C407.473 789.234 406.441 788.844 405.73 788.062C405.027 787.273 404.672 786.109 404.664 784.57V776.32H406.832V784.512C406.832 786.434 407.613 787.395 409.176 787.395C410.832 787.395 411.934 786.777 412.48 785.543V776.32H414.648V789H412.586L412.539 787.746ZM420.895 773.25V776.32H423.262V777.996H420.895V785.859C420.895 786.367 421 786.75 421.211 787.008C421.422 787.258 421.781 787.383 422.289 787.383C422.539 787.383 422.883 787.336 423.32 787.242V789C422.75 789.156 422.195 789.234 421.656 789.234C420.688 789.234 419.957 788.941 419.465 788.355C418.973 787.77 418.727 786.938 418.727 785.859V777.996H416.418V776.32H418.727V773.25H420.895Z" fill="white"/>
<path d="M172 672C172 670.343 173.343 669 175 669H486C487.657 669 489 670.343 489 672V673H172V672Z" fill="white"/>
<path d="M205.824 652.838H200.199V656.646H206.801V659H197.27V644.781H206.781V647.154H200.199V650.543H205.824V652.838ZM214.271 651.08C213.887 651.028 213.549 651.002 213.256 651.002C212.188 651.002 211.488 651.363 211.156 652.086V659H208.334V648.434H211L211.078 649.693C211.645 648.723 212.429 648.238 213.432 648.238C213.744 648.238 214.037 648.281 214.311 648.365L214.271 651.08ZM225.004 655.162L226.391 648.434H229.115L226.42 659H224.057L222.055 652.35L220.053 659H217.699L215.004 648.434H217.729L219.105 655.152L221.039 648.434H223.08L225.004 655.162ZM235.385 659.195C233.835 659.195 232.572 658.72 231.596 657.77C230.626 656.819 230.141 655.553 230.141 653.971V653.697C230.141 652.636 230.346 651.689 230.756 650.855C231.166 650.016 231.745 649.371 232.494 648.922C233.249 648.466 234.109 648.238 235.072 648.238C236.518 648.238 237.654 648.694 238.48 649.605C239.314 650.517 239.73 651.809 239.73 653.482V654.635H233.002C233.093 655.325 233.367 655.878 233.822 656.295C234.285 656.712 234.867 656.92 235.57 656.92C236.658 656.92 237.507 656.526 238.119 655.738L239.506 657.291C239.083 657.89 238.51 658.359 237.787 658.697C237.064 659.029 236.264 659.195 235.385 659.195ZM235.062 650.523C234.503 650.523 234.047 650.712 233.695 651.09C233.35 651.467 233.129 652.008 233.031 652.711H236.957V652.486C236.944 651.861 236.775 651.38 236.449 651.041C236.124 650.696 235.661 650.523 235.062 650.523ZM244.32 659H241.488V648.434H244.32V659ZM241.322 645.699C241.322 645.276 241.462 644.928 241.742 644.654C242.029 644.381 242.416 644.244 242.904 644.244C243.386 644.244 243.77 644.381 244.057 644.654C244.343 644.928 244.486 645.276 244.486 645.699C244.486 646.129 244.34 646.48 244.047 646.754C243.76 647.027 243.38 647.164 242.904 647.164C242.429 647.164 242.045 647.027 241.752 646.754C241.465 646.48 241.322 646.129 241.322 645.699ZM250.033 645.836V648.434H251.84V650.504H250.033V655.777C250.033 656.168 250.108 656.448 250.258 656.617C250.408 656.786 250.694 656.871 251.117 656.871C251.43 656.871 251.706 656.848 251.947 656.803V658.941C251.394 659.111 250.824 659.195 250.238 659.195C248.259 659.195 247.25 658.196 247.211 656.197V650.504H245.668V648.434H247.211V645.836H250.033ZM258.275 659.195C256.726 659.195 255.463 658.72 254.486 657.77C253.516 656.819 253.031 655.553 253.031 653.971V653.697C253.031 652.636 253.236 651.689 253.646 650.855C254.057 650.016 254.636 649.371 255.385 648.922C256.14 648.466 256.999 648.238 257.963 648.238C259.408 648.238 260.544 648.694 261.371 649.605C262.204 650.517 262.621 651.809 262.621 653.482V654.635H255.893C255.984 655.325 256.257 655.878 256.713 656.295C257.175 656.712 257.758 656.92 258.461 656.92C259.548 656.92 260.398 656.526 261.01 655.738L262.396 657.291C261.973 657.89 261.4 658.359 260.678 658.697C259.955 659.029 259.154 659.195 258.275 659.195ZM257.953 650.523C257.393 650.523 256.938 650.712 256.586 651.09C256.241 651.467 256.02 652.008 255.922 652.711H259.848V652.486C259.835 651.861 259.665 651.38 259.34 651.041C259.014 650.696 258.552 650.523 257.953 650.523ZM270.17 651.08C269.786 651.028 269.447 651.002 269.154 651.002C268.087 651.002 267.387 651.363 267.055 652.086V659H264.232V648.434H266.898L266.977 649.693C267.543 648.723 268.327 648.238 269.33 648.238C269.643 648.238 269.936 648.281 270.209 648.365L270.17 651.08ZM277.865 657.926C277.169 658.772 276.205 659.195 274.975 659.195C273.842 659.195 272.976 658.87 272.377 658.219C271.785 657.568 271.482 656.614 271.469 655.357V648.434H274.291V655.26C274.291 656.36 274.792 656.91 275.795 656.91C276.752 656.91 277.41 656.578 277.768 655.914V648.434H280.6V659H277.943L277.865 657.926ZM285.326 648.434L285.414 649.654C286.169 648.71 287.182 648.238 288.451 648.238C289.571 648.238 290.404 648.567 290.951 649.225C291.498 649.882 291.778 650.865 291.791 652.174V659H288.969V652.242C288.969 651.643 288.839 651.21 288.578 650.943C288.318 650.67 287.885 650.533 287.279 650.533C286.485 650.533 285.889 650.872 285.492 651.549V659H282.67V648.434H285.326ZM293.529 653.639C293.529 652.018 293.913 650.712 294.682 649.723C295.456 648.733 296.498 648.238 297.807 648.238C298.965 648.238 299.867 648.635 300.512 649.43L300.629 648.434H303.188V658.648C303.188 659.573 302.976 660.377 302.553 661.061C302.136 661.744 301.547 662.265 300.785 662.623C300.023 662.981 299.132 663.16 298.109 663.16C297.335 663.16 296.579 663.004 295.844 662.691C295.108 662.385 294.551 661.988 294.174 661.5L295.424 659.781C296.127 660.569 296.98 660.963 297.982 660.963C298.731 660.963 299.314 660.761 299.73 660.357C300.147 659.96 300.355 659.394 300.355 658.658V658.092C299.704 658.827 298.848 659.195 297.787 659.195C296.518 659.195 295.489 658.701 294.701 657.711C293.92 656.715 293.529 655.396 293.529 653.756V653.639ZM296.352 653.844C296.352 654.801 296.544 655.553 296.928 656.1C297.312 656.64 297.839 656.91 298.51 656.91C299.369 656.91 299.984 656.588 300.355 655.943V651.5C299.978 650.855 299.369 650.533 298.529 650.533C297.852 650.533 297.318 650.81 296.928 651.363C296.544 651.917 296.352 652.743 296.352 653.844ZM310.531 659V644.781H315.512C317.237 644.781 318.546 645.113 319.438 645.777C320.329 646.435 320.775 647.402 320.775 648.678C320.775 649.374 320.596 649.99 320.238 650.523C319.88 651.051 319.382 651.438 318.744 651.686C319.473 651.868 320.046 652.236 320.463 652.789C320.886 653.342 321.098 654.02 321.098 654.82C321.098 656.188 320.661 657.223 319.789 657.926C318.917 658.629 317.673 658.987 316.059 659H310.531ZM313.461 652.809V656.646H315.971C316.661 656.646 317.198 656.484 317.582 656.158C317.973 655.826 318.168 655.37 318.168 654.791C318.168 653.489 317.494 652.828 316.146 652.809H313.461ZM313.461 650.738H315.629C317.107 650.712 317.846 650.123 317.846 648.971C317.846 648.326 317.657 647.864 317.279 647.584C316.908 647.298 316.319 647.154 315.512 647.154H313.461V650.738ZM327.982 659.195C326.433 659.195 325.17 658.72 324.193 657.77C323.223 656.819 322.738 655.553 322.738 653.971V653.697C322.738 652.636 322.943 651.689 323.354 650.855C323.764 650.016 324.343 649.371 325.092 648.922C325.847 648.466 326.706 648.238 327.67 648.238C329.115 648.238 330.251 648.694 331.078 649.605C331.911 650.517 332.328 651.809 332.328 653.482V654.635H325.6C325.691 655.325 325.964 655.878 326.42 656.295C326.882 656.712 327.465 656.92 328.168 656.92C329.255 656.92 330.105 656.526 330.717 655.738L332.104 657.291C331.68 657.89 331.107 658.359 330.385 658.697C329.662 659.029 328.861 659.195 327.982 659.195ZM327.66 650.523C327.1 650.523 326.645 650.712 326.293 651.09C325.948 651.467 325.727 652.008 325.629 652.711H329.555V652.486C329.542 651.861 329.372 651.38 329.047 651.041C328.721 650.696 328.259 650.523 327.66 650.523ZM336.918 659H334.086V648.434H336.918V659ZM333.92 645.699C333.92 645.276 334.06 644.928 334.34 644.654C334.626 644.381 335.014 644.244 335.502 644.244C335.984 644.244 336.368 644.381 336.654 644.654C336.941 644.928 337.084 645.276 337.084 645.699C337.084 646.129 336.938 646.48 336.645 646.754C336.358 647.027 335.977 647.164 335.502 647.164C335.027 647.164 334.643 647.027 334.35 646.754C334.063 646.48 333.92 646.129 333.92 645.699ZM344.975 656.08C344.975 655.735 344.802 655.465 344.457 655.27C344.118 655.068 343.572 654.889 342.816 654.732C340.303 654.205 339.047 653.137 339.047 651.529C339.047 650.592 339.434 649.811 340.209 649.186C340.99 648.554 342.009 648.238 343.266 648.238C344.607 648.238 345.678 648.554 346.479 649.186C347.286 649.817 347.689 650.637 347.689 651.646H344.867C344.867 651.243 344.737 650.911 344.477 650.65C344.216 650.383 343.809 650.25 343.256 650.25C342.781 650.25 342.413 650.357 342.152 650.572C341.892 650.787 341.762 651.061 341.762 651.393C341.762 651.705 341.908 651.959 342.201 652.154C342.501 652.343 343.002 652.509 343.705 652.652C344.408 652.789 345.001 652.945 345.482 653.121C346.973 653.668 347.719 654.615 347.719 655.963C347.719 656.926 347.305 657.708 346.479 658.307C345.652 658.899 344.584 659.195 343.275 659.195C342.39 659.195 341.602 659.039 340.912 658.727C340.229 658.408 339.691 657.975 339.301 657.428C338.91 656.874 338.715 656.279 338.715 655.641H341.391C341.417 656.142 341.602 656.526 341.947 656.793C342.292 657.06 342.755 657.193 343.334 657.193C343.874 657.193 344.281 657.092 344.555 656.891C344.835 656.682 344.975 656.412 344.975 656.08ZM359.057 653.814C359.057 655.442 358.686 656.747 357.943 657.73C357.208 658.707 356.212 659.195 354.955 659.195C353.887 659.195 353.025 658.824 352.367 658.082V663.062H349.545V648.434H352.162L352.26 649.469C352.943 648.648 353.835 648.238 354.936 648.238C356.238 648.238 357.25 648.72 357.973 649.684C358.695 650.647 359.057 651.975 359.057 653.668V653.814ZM356.234 653.609C356.234 652.626 356.059 651.868 355.707 651.334C355.362 650.8 354.857 650.533 354.193 650.533C353.308 650.533 352.699 650.872 352.367 651.549V655.875C352.712 656.572 353.327 656.92 354.213 656.92C355.561 656.92 356.234 655.816 356.234 653.609ZM363.793 659H360.961V648.434H363.793V659ZM360.795 645.699C360.795 645.276 360.935 644.928 361.215 644.654C361.501 644.381 361.889 644.244 362.377 644.244C362.859 644.244 363.243 644.381 363.529 644.654C363.816 644.928 363.959 645.276 363.959 645.699C363.959 646.129 363.812 646.48 363.52 646.754C363.233 647.027 362.852 647.164 362.377 647.164C361.902 647.164 361.518 647.027 361.225 646.754C360.938 646.48 360.795 646.129 360.795 645.699ZM370.99 659.195C369.441 659.195 368.178 658.72 367.201 657.77C366.231 656.819 365.746 655.553 365.746 653.971V653.697C365.746 652.636 365.951 651.689 366.361 650.855C366.771 650.016 367.351 649.371 368.1 648.922C368.855 648.466 369.714 648.238 370.678 648.238C372.123 648.238 373.259 648.694 374.086 649.605C374.919 650.517 375.336 651.809 375.336 653.482V654.635H368.607C368.699 655.325 368.972 655.878 369.428 656.295C369.89 656.712 370.473 656.92 371.176 656.92C372.263 656.92 373.113 656.526 373.725 655.738L375.111 657.291C374.688 657.89 374.115 658.359 373.393 658.697C372.67 659.029 371.869 659.195 370.99 659.195ZM370.668 650.523C370.108 650.523 369.652 650.712 369.301 651.09C368.956 651.467 368.734 652.008 368.637 652.711H372.562V652.486C372.549 651.861 372.38 651.38 372.055 651.041C371.729 650.696 371.267 650.523 370.668 650.523ZM379.926 659H377.094V644H379.926V659ZM396.869 659H387.123V657.066L391.723 652.164C392.354 651.474 392.82 650.872 393.119 650.357C393.425 649.843 393.578 649.355 393.578 648.893C393.578 648.261 393.419 647.766 393.1 647.408C392.781 647.044 392.325 646.861 391.732 646.861C391.094 646.861 390.59 647.083 390.219 647.525C389.854 647.962 389.672 648.538 389.672 649.254H386.84C386.84 648.388 387.045 647.597 387.455 646.881C387.872 646.165 388.458 645.605 389.213 645.201C389.968 644.791 390.824 644.586 391.781 644.586C393.246 644.586 394.382 644.938 395.189 645.641C396.003 646.344 396.41 647.337 396.41 648.619C396.41 649.322 396.228 650.038 395.863 650.768C395.499 651.497 394.874 652.346 393.988 653.316L390.756 656.725H396.869V659Z" fill="white"/>
<rect x="212" y="481" width="73" height="48" rx="24" fill="#226569"/>
<path d="M229.665 310.203L233.849 320.645L238.032 310.203H240.221V323H238.533V318.017L238.691 312.638L234.49 323H233.198L229.006 312.664L229.173 318.017V323H227.485V310.203H229.665ZM248.816 323C248.723 322.812 248.646 322.479 248.588 321.998C247.832 322.783 246.93 323.176 245.881 323.176C244.943 323.176 244.173 322.912 243.569 322.385C242.972 321.852 242.673 321.178 242.673 320.363C242.673 319.373 243.048 318.605 243.798 318.061C244.554 317.51 245.614 317.234 246.979 317.234H248.562V316.487C248.562 315.919 248.392 315.468 248.052 315.134C247.712 314.794 247.211 314.624 246.549 314.624C245.969 314.624 245.482 314.771 245.09 315.063C244.697 315.356 244.501 315.711 244.501 316.127H242.866C242.866 315.652 243.033 315.195 243.367 314.756C243.707 314.311 244.164 313.959 244.738 313.701C245.318 313.443 245.954 313.314 246.646 313.314C247.741 313.314 248.6 313.59 249.221 314.141C249.842 314.686 250.164 315.438 250.188 316.399V320.776C250.188 321.649 250.299 322.344 250.521 322.859V323H248.816ZM246.118 321.761C246.628 321.761 247.111 321.629 247.568 321.365C248.025 321.102 248.356 320.759 248.562 320.337V318.386H247.287C245.295 318.386 244.299 318.969 244.299 320.135C244.299 320.645 244.469 321.043 244.809 321.33C245.148 321.617 245.585 321.761 246.118 321.761ZM254.942 311.188V313.49H256.718V314.747H254.942V320.645C254.942 321.025 255.021 321.312 255.18 321.506C255.338 321.693 255.607 321.787 255.988 321.787C256.176 321.787 256.434 321.752 256.762 321.682V323C256.334 323.117 255.918 323.176 255.514 323.176C254.787 323.176 254.239 322.956 253.87 322.517C253.501 322.077 253.316 321.453 253.316 320.645V314.747H251.585V313.49H253.316V311.188H254.942ZM263.222 314.949C262.976 314.908 262.709 314.888 262.422 314.888C261.355 314.888 260.632 315.342 260.251 316.25V323H258.625V313.49H260.207L260.233 314.589C260.767 313.739 261.522 313.314 262.501 313.314C262.817 313.314 263.058 313.355 263.222 313.438V314.949ZM266.491 323H264.865V313.49H266.491V323ZM264.733 310.968C264.733 310.704 264.812 310.481 264.971 310.3C265.135 310.118 265.375 310.027 265.691 310.027C266.008 310.027 266.248 310.118 266.412 310.3C266.576 310.481 266.658 310.704 266.658 310.968C266.658 311.231 266.576 311.451 266.412 311.627C266.248 311.803 266.008 311.891 265.691 311.891C265.375 311.891 265.135 311.803 264.971 311.627C264.812 311.451 264.733 311.231 264.733 310.968ZM271.756 318.597L270.736 319.66V323H269.11V309.5H270.736V317.665L271.606 316.619L274.568 313.49H276.546L272.846 317.463L276.977 323H275.069L271.756 318.597ZM281.995 323.176C280.706 323.176 279.657 322.754 278.849 321.91C278.04 321.061 277.636 319.927 277.636 318.509V318.21C277.636 317.267 277.814 316.426 278.172 315.688C278.535 314.943 279.039 314.363 279.684 313.947C280.334 313.525 281.037 313.314 281.793 313.314C283.029 313.314 283.99 313.722 284.676 314.536C285.361 315.351 285.704 316.517 285.704 318.034V318.711H279.262C279.285 319.648 279.558 320.407 280.079 320.987C280.606 321.562 281.274 321.849 282.083 321.849C282.657 321.849 283.144 321.731 283.542 321.497C283.94 321.263 284.289 320.952 284.588 320.565L285.581 321.339C284.784 322.563 283.589 323.176 281.995 323.176ZM281.793 314.65C281.137 314.65 280.586 314.891 280.141 315.371C279.695 315.846 279.42 316.514 279.314 317.375H284.078V317.252C284.031 316.426 283.809 315.787 283.41 315.336C283.012 314.879 282.473 314.65 281.793 314.65ZM289.36 323H287.734V309.5H289.36V323ZM293.509 313.49L293.562 314.686C294.288 313.771 295.237 313.314 296.409 313.314C298.419 313.314 299.433 314.448 299.45 316.716V323H297.824V316.707C297.818 316.021 297.66 315.515 297.35 315.187C297.045 314.858 296.567 314.694 295.917 314.694C295.39 314.694 294.927 314.835 294.528 315.116C294.13 315.397 293.819 315.767 293.597 316.224V323H291.971V313.49H293.509ZM307.773 322.06C307.141 322.804 306.212 323.176 304.987 323.176C303.974 323.176 303.2 322.883 302.667 322.297C302.14 321.705 301.873 320.832 301.867 319.678V313.49H303.493V319.634C303.493 321.075 304.079 321.796 305.251 321.796C306.493 321.796 307.319 321.333 307.729 320.407V313.49H309.355V323H307.809L307.773 322.06ZM313.363 313.49L313.407 314.545C314.104 313.725 315.045 313.314 316.229 313.314C317.559 313.314 318.464 313.824 318.944 314.844C319.261 314.387 319.671 314.018 320.175 313.736C320.685 313.455 321.285 313.314 321.977 313.314C324.062 313.314 325.123 314.419 325.158 316.628V323H323.532V316.725C323.532 316.045 323.377 315.538 323.066 315.204C322.756 314.864 322.234 314.694 321.502 314.694C320.898 314.694 320.397 314.876 319.999 315.239C319.601 315.597 319.369 316.08 319.305 316.689V323H317.67V316.769C317.67 315.386 316.993 314.694 315.64 314.694C314.573 314.694 313.844 315.148 313.451 316.057V323H311.825V313.49H313.363ZM329.148 313.49L329.192 314.545C329.89 313.725 330.83 313.314 332.014 313.314C333.344 313.314 334.249 313.824 334.729 314.844C335.046 314.387 335.456 314.018 335.96 313.736C336.47 313.455 337.07 313.314 337.762 313.314C339.848 313.314 340.908 314.419 340.943 316.628V323H339.317V316.725C339.317 316.045 339.162 315.538 338.852 315.204C338.541 314.864 338.02 314.694 337.287 314.694C336.684 314.694 336.183 314.876 335.784 315.239C335.386 315.597 335.154 316.08 335.09 316.689V323H333.455V316.769C333.455 315.386 332.778 314.694 331.425 314.694C330.358 314.694 329.629 315.148 329.236 316.057V323H327.61V313.49H329.148ZM347.351 323.176C346.062 323.176 345.013 322.754 344.204 321.91C343.396 321.061 342.991 319.927 342.991 318.509V318.21C342.991 317.267 343.17 316.426 343.527 315.688C343.891 314.943 344.395 314.363 345.039 313.947C345.689 313.525 346.393 313.314 347.148 313.314C348.385 313.314 349.346 313.722 350.031 314.536C350.717 315.351 351.06 316.517 351.06 318.034V318.711H344.617C344.641 319.648 344.913 320.407 345.435 320.987C345.962 321.562 346.63 321.849 347.438 321.849C348.013 321.849 348.499 321.731 348.897 321.497C349.296 321.263 349.645 320.952 349.943 320.565L350.937 321.339C350.14 322.563 348.944 323.176 347.351 323.176ZM347.148 314.65C346.492 314.65 345.941 314.891 345.496 315.371C345.051 315.846 344.775 316.514 344.67 317.375H349.434V317.252C349.387 316.426 349.164 315.787 348.766 315.336C348.367 314.879 347.828 314.65 347.148 314.65ZM357.546 314.949C357.3 314.908 357.033 314.888 356.746 314.888C355.68 314.888 354.956 315.342 354.575 316.25V323H352.949V313.49H354.531L354.558 314.589C355.091 313.739 355.847 313.314 356.825 313.314C357.142 313.314 357.382 313.355 357.546 313.438V314.949ZM367.46 323.176C366.171 323.176 365.122 322.754 364.313 321.91C363.505 321.061 363.101 319.927 363.101 318.509V318.21C363.101 317.267 363.279 316.426 363.637 315.688C364 314.943 364.504 314.363 365.148 313.947C365.799 313.525 366.502 313.314 367.258 313.314C368.494 313.314 369.455 313.722 370.141 314.536C370.826 315.351 371.169 316.517 371.169 318.034V318.711H364.727C364.75 319.648 365.022 320.407 365.544 320.987C366.071 321.562 366.739 321.849 367.548 321.849C368.122 321.849 368.608 321.731 369.007 321.497C369.405 321.263 369.754 320.952 370.053 320.565L371.046 321.339C370.249 322.563 369.054 323.176 367.46 323.176ZM367.258 314.65C366.602 314.65 366.051 314.891 365.605 315.371C365.16 315.846 364.885 316.514 364.779 317.375H369.543V317.252C369.496 316.426 369.273 315.787 368.875 315.336C368.477 314.879 367.938 314.65 367.258 314.65ZM374.825 323H373.199V313.49H374.825V323ZM373.067 310.968C373.067 310.704 373.146 310.481 373.305 310.3C373.469 310.118 373.709 310.027 374.025 310.027C374.342 310.027 374.582 310.118 374.746 310.3C374.91 310.481 374.992 310.704 374.992 310.968C374.992 311.231 374.91 311.451 374.746 311.627C374.582 311.803 374.342 311.891 374.025 311.891C373.709 311.891 373.469 311.803 373.305 311.627C373.146 311.451 373.067 311.231 373.067 310.968ZM378.974 313.49L379.026 314.686C379.753 313.771 380.702 313.314 381.874 313.314C383.884 313.314 384.897 314.448 384.915 316.716V323H383.289V316.707C383.283 316.021 383.125 315.515 382.814 315.187C382.51 314.858 382.032 314.694 381.382 314.694C380.854 314.694 380.392 314.835 379.993 315.116C379.595 315.397 379.284 315.767 379.062 316.224V323H377.436V313.49H378.974ZM386.98 318.166C386.98 316.684 387.323 315.506 388.009 314.633C388.694 313.754 389.603 313.314 390.733 313.314C391.894 313.314 392.799 313.725 393.449 314.545L393.528 313.49H395.014V322.771C395.014 324.002 394.647 324.972 393.915 325.681C393.188 326.39 392.21 326.744 390.979 326.744C390.294 326.744 389.623 326.598 388.967 326.305C388.311 326.012 387.81 325.61 387.464 325.101L388.308 324.125C389.005 324.986 389.857 325.417 390.865 325.417C391.656 325.417 392.271 325.194 392.711 324.749C393.156 324.304 393.379 323.677 393.379 322.868V322.051C392.729 322.801 391.841 323.176 390.716 323.176C389.603 323.176 388.7 322.728 388.009 321.831C387.323 320.935 386.98 319.713 386.98 318.166ZM388.615 318.351C388.615 319.423 388.835 320.267 389.274 320.882C389.714 321.491 390.329 321.796 391.12 321.796C392.146 321.796 392.898 321.33 393.379 320.398V316.057C392.881 315.148 392.134 314.694 391.138 314.694C390.347 314.694 389.729 315.002 389.283 315.617C388.838 316.232 388.615 317.144 388.615 318.351ZM401.421 323.176C400.132 323.176 399.083 322.754 398.274 321.91C397.466 321.061 397.062 319.927 397.062 318.509V318.21C397.062 317.267 397.24 316.426 397.598 315.688C397.961 314.943 398.465 314.363 399.109 313.947C399.76 313.525 400.463 313.314 401.219 313.314C402.455 313.314 403.416 313.722 404.102 314.536C404.787 315.351 405.13 316.517 405.13 318.034V318.711H398.688C398.711 319.648 398.983 320.407 399.505 320.987C400.032 321.562 400.7 321.849 401.509 321.849C402.083 321.849 402.569 321.731 402.968 321.497C403.366 321.263 403.715 320.952 404.014 320.565L405.007 321.339C404.21 322.563 403.015 323.176 401.421 323.176ZM401.219 314.65C400.562 314.65 400.012 314.891 399.566 315.371C399.121 315.846 398.846 316.514 398.74 317.375H403.504V317.252C403.457 316.426 403.234 315.787 402.836 315.336C402.438 314.879 401.898 314.65 401.219 314.65ZM415.07 318.351C415.07 319.804 414.736 320.973 414.068 321.857C413.4 322.736 412.504 323.176 411.379 323.176C410.178 323.176 409.249 322.751 408.593 321.901L408.514 323H407.02V309.5H408.646V314.536C409.302 313.722 410.207 313.314 411.361 313.314C412.516 313.314 413.421 313.751 414.077 314.624C414.739 315.497 415.07 316.692 415.07 318.21V318.351ZM413.444 318.166C413.444 317.059 413.23 316.203 412.803 315.6C412.375 314.996 411.76 314.694 410.957 314.694C409.885 314.694 409.114 315.192 408.646 316.188V320.302C409.144 321.298 409.92 321.796 410.975 321.796C411.754 321.796 412.36 321.494 412.794 320.891C413.228 320.287 413.444 319.379 413.444 318.166ZM421.073 323.176C419.784 323.176 418.735 322.754 417.927 321.91C417.118 321.061 416.714 319.927 416.714 318.509V318.21C416.714 317.267 416.893 316.426 417.25 315.688C417.613 314.943 418.117 314.363 418.762 313.947C419.412 313.525 420.115 313.314 420.871 313.314C422.107 313.314 423.068 313.722 423.754 314.536C424.439 315.351 424.782 316.517 424.782 318.034V318.711H418.34C418.363 319.648 418.636 320.407 419.157 320.987C419.685 321.562 420.353 321.849 421.161 321.849C421.735 321.849 422.222 321.731 422.62 321.497C423.019 321.263 423.367 320.952 423.666 320.565L424.659 321.339C423.862 322.563 422.667 323.176 421.073 323.176ZM420.871 314.65C420.215 314.65 419.664 314.891 419.219 315.371C418.773 315.846 418.498 316.514 418.393 317.375H423.156V317.252C423.109 316.426 422.887 315.787 422.488 315.336C422.09 314.879 421.551 314.65 420.871 314.65ZM428.21 313.49L428.263 314.686C428.989 313.771 429.938 313.314 431.11 313.314C433.12 313.314 434.134 314.448 434.151 316.716V323H432.525V316.707C432.52 316.021 432.361 315.515 432.051 315.187C431.746 314.858 431.269 314.694 430.618 314.694C430.091 314.694 429.628 314.835 429.229 315.116C428.831 315.397 428.521 315.767 428.298 316.224V323H426.672V313.49H428.21Z" fill="white"/>
<path d="M236.238 506.098H232.23V513H229.969V495.938H235.617C237.539 495.938 239.016 496.375 240.047 497.25C241.086 498.125 241.605 499.398 241.605 501.07C241.605 502.133 241.316 503.059 240.738 503.848C240.168 504.637 239.371 505.227 238.348 505.617L242.355 512.859V513H239.941L236.238 506.098ZM232.23 504.258H235.688C236.805 504.258 237.691 503.969 238.348 503.391C239.012 502.812 239.344 502.039 239.344 501.07C239.344 500.016 239.027 499.207 238.395 498.645C237.77 498.082 236.863 497.797 235.676 497.789H232.23V504.258ZM252.258 511.746C251.414 512.738 250.176 513.234 248.543 513.234C247.191 513.234 246.16 512.844 245.449 512.062C244.746 511.273 244.391 510.109 244.383 508.57V500.32H246.551V508.512C246.551 510.434 247.332 511.395 248.895 511.395C250.551 511.395 251.652 510.777 252.199 509.543V500.32H254.367V513H252.305L252.258 511.746ZM259.723 500.32L259.793 501.914C260.762 500.695 262.027 500.086 263.59 500.086C266.27 500.086 267.621 501.598 267.645 504.621V513H265.477V504.609C265.469 503.695 265.258 503.02 264.844 502.582C264.438 502.145 263.801 501.926 262.934 501.926C262.23 501.926 261.613 502.113 261.082 502.488C260.551 502.863 260.137 503.355 259.84 503.965V513H257.672V500.32H259.723Z" fill="white"/>
<rect x="212" y="727" width="73" height="48" rx="24" fill="#226569"/>
<path d="M236.238 752.098H232.23V759H229.969V741.938H235.617C237.539 741.938 239.016 742.375 240.047 743.25C241.086 744.125 241.605 745.398 241.605 747.07C241.605 748.133 241.316 749.059 240.738 749.848C240.168 750.637 239.371 751.227 238.348 751.617L242.355 758.859V759H239.941L236.238 752.098ZM232.23 750.258H235.688C236.805 750.258 237.691 749.969 238.348 749.391C239.012 748.812 239.344 748.039 239.344 747.07C239.344 746.016 239.027 745.207 238.395 744.645C237.77 744.082 236.863 743.797 235.676 743.789H232.23V750.258ZM252.258 757.746C251.414 758.738 250.176 759.234 248.543 759.234C247.191 759.234 246.16 758.844 245.449 758.062C244.746 757.273 244.391 756.109 244.383 754.57V746.32H246.551V754.512C246.551 756.434 247.332 757.395 248.895 757.395C250.551 757.395 251.652 756.777 252.199 755.543V746.32H254.367V759H252.305L252.258 757.746ZM259.723 746.32L259.793 747.914C260.762 746.695 262.027 746.086 263.59 746.086C266.27 746.086 267.621 747.598 267.645 750.621V759H265.477V750.609C265.469 749.695 265.258 749.02 264.844 748.582C264.438 748.145 263.801 747.926 262.934 747.926C262.23 747.926 261.613 748.113 261.082 748.488C260.551 748.863 260.137 749.355 259.84 749.965V759H257.672V746.32H259.723Z" fill="white"/>
<line x1="219" y1="330.5" x2="443" y2="330.5" stroke="white"/>
<defs>
<filter id="filter0_d" x="172" y="631" width="326" height="208" filterUnits="userSpaceOnUse" color-interpolation-filters="sRGB">
<feFlood flood-opacity="0" result="BackgroundImageFix"/>
<feColorMatrix in="SourceAlpha" type="matrix" values="0 0 0 0 0 0 0 0 0 0 0 0 0 0 0 0 0 0 127 0"/>
<feOffset dx="5" dy="5"/>
<feGaussianBlur stdDeviation="2"/>
<feColorMatrix type="matrix" values="0 0 0 0 0 0 0 0 0 0 0 0 0 0 0 0 0 0 0.25 0"/>
<feBlend mode="normal" in2="BackgroundImageFix" result="effect1_dropShadow"/>
<feBlend mode="normal" in="SourceGraphic" in2="effect1_dropShadow" result="shape"/>
</filter>
<filter id="filter1_d" x="172" y="383" width="326" height="208" filterUnits="userSpaceOnUse" color-interpolation-filters="sRGB">
<feFlood flood-opacity="0" result="BackgroundImageFix"/>
<feColorMatrix in="SourceAlpha" type="matrix" values="0 0 0 0 0 0 0 0 0 0 0 0 0 0 0 0 0 0 127 0"/>
<feOffset dx="5" dy="5"/>
<feGaussianBlur stdDeviation="2"/>
<feColorMatrix type="matrix" values="0 0 0 0 0 0 0 0 0 0 0 0 0 0 0 0 0 0 0.25 0"/>
<feBlend mode="normal" in2="BackgroundImageFix" result="effect1_dropShadow"/>
<feBlend mode="normal" in="SourceGraphic" in2="effect1_dropShadow" result="shape"/>
</filter>
<filter id="filter2_d" x="168" y="290" width="325" height="60" filterUnits="userSpaceOnUse" color-interpolation-filters="sRGB">
<feFlood flood-opacity="0" result="BackgroundImageFix"/>
<feColorMatrix in="SourceAlpha" type="matrix" values="0 0 0 0 0 0 0 0 0 0 0 0 0 0 0 0 0 0 127 0"/>
<feOffset dy="4"/>
<feGaussianBlur stdDeviation="2"/>
<feColorMatrix type="matrix" values="0 0 0 0 0 0 0 0 0 0 0 0 0 0 0 0 0 0 0.25 0"/>
<feBlend mode="normal" in2="BackgroundImageFix" result="effect1_dropShadow"/>
<feBlend mode="normal" in="SourceGraphic" in2="effect1_dropShadow" result="shape"/>
</filter>
<linearGradient id="paint0_linear" x1="259.392" y1="181.696" x2="259.392" y2="257.353" gradientUnits="userSpaceOnUse">
<stop stop-color="#A2E45B"/>
<stop offset="1" stop-color="#3EC6C0"/>
</linearGradient>
<linearGradient id="paint1_linear" x1="236.027" y1="134.688" x2="216" y2="237.326" gradientUnits="userSpaceOnUse">
<stop stop-color="#A2E45C"/>
<stop offset="1" stop-color="#42C8BD"/>
</linearGradient>
<linearGradient id="paint2_linear" x1="238.808" y1="181.696" x2="251" y2="106.5" gradientUnits="userSpaceOnUse">
<stop stop-color="#A1E45D"/>
<stop offset="1" stop-color="#40C7C0"/>
</linearGradient>
<linearGradient id="paint3_linear" x1="424.392" y1="181.696" x2="424.392" y2="257.353" gradientUnits="userSpaceOnUse">
<stop stop-color="#A2E45B"/>
<stop offset="1" stop-color="#3EC6C0"/>
</linearGradient>
<linearGradient id="paint4_linear" x1="401.027" y1="134.688" x2="381" y2="237.326" gradientUnits="userSpaceOnUse">
<stop stop-color="#A2E45C"/>
<stop offset="1" stop-color="#42C8BD"/>
</linearGradient>
<linearGradient id="paint5_linear" x1="403.808" y1="181.696" x2="416" y2="106.5" gradientUnits="userSpaceOnUse">
<stop stop-color="#A1E45D"/>
<stop offset="1" stop-color="#40C7C0"/>
</linearGradient>
<linearGradient id="paint6_linear" x1="373.74" y1="199.868" x2="309.111" y2="220.462" gradientUnits="userSpaceOnUse">
<stop stop-color="#4ECFA1"/>
<stop offset="1" stop-color="#3DC5C1"/>
</linearGradient>
<linearGradient id="paint7_linear" x1="291.286" y1="185.104" x2="292.125" y2="220.007" gradientUnits="userSpaceOnUse">
<stop stop-color="#4ECFA1"/>
<stop offset="1" stop-color="#3DC5C1"/>
</linearGradient>
<linearGradient id="paint8_linear" x1="393.21" y1="211.551" x2="328.582" y2="232.144" gradientUnits="userSpaceOnUse">
<stop stop-color="#4ECFA1"/>
<stop offset="1" stop-color="#3DC5C1"/>
</linearGradient>
<linearGradient id="paint9_linear" x1="369.354" y1="232.249" x2="368.514" y2="197.346" gradientUnits="userSpaceOnUse">
<stop stop-color="#4ECFA1"/>
<stop offset="1" stop-color="#3DC5C1"/>
</linearGradient>
<linearGradient id="paint10_linear" x1="743.5" y1="365.665" x2="-20.7917" y2="394.945" gradientUnits="userSpaceOnUse">
<stop stop-color="#4ECFA1"/>
<stop offset="1" stop-color="#3DC5C1"/>
</linearGradient>
<linearGradient id="paint11_linear" x1="743.5" y1="117.665" x2="-20.7917" y2="146.945" gradientUnits="userSpaceOnUse">
<stop stop-color="#4ECFA1"/>
<stop offset="1" stop-color="#3DC5C1"/>
</linearGradient>
<linearGradient id="paint12_linear" x1="730.472" y1="239" x2="11.4228" y2="365.398" gradientUnits="userSpaceOnUse">
<stop stop-color="#4ECFA1"/>
<stop offset="1" stop-color="#3DC5C1"/>
</linearGradient>
</defs>
</svg>
